<svg width="70" height="70" viewBox="0 0 70 70" fill="none" xmlns="http://www.w3.org/2000/svg">
<path d="M52.7857 45V53.0769H14.2143V27.2308H30.2857V24H14.2143C13.3618 24 12.5442 24.3404 11.9414 24.9463C11.3386 25.5522 11 26.3739 11 27.2308V53.0769C11 53.9338 11.3386 54.7555 11.9414 55.3614C12.5442 55.9673 13.3618 56.3077 14.2143 56.3077H27.0714V62.7692H20.6429V66H46.3571V62.7692H39.9286V56.3077H52.7857C53.6382 56.3077 54.4558 55.9673 55.0586 55.3614C55.6614 54.7555 56 53.9338 56 53.0769V45H52.7857ZM36.7143 62.7692H30.2857V56.3077H36.7143V62.7692Z" fill="url(#paint0_linear_57_1841)"/>
<path d="M45.7555 35.4421L46.5888 38.8013C46.8875 40.0095 48.143 41 49.3783 41H51.6243C52.8596 41 54.1151 40.0095 54.4138 38.8013L55.2471 35.4421C55.3164 35.1564 55.4423 34.8878 55.6172 34.6525C55.7922 34.4172 56.0126 34.2201 56.2651 34.0731C56.5176 33.9261 56.7969 33.8322 57.0863 33.7972C57.3758 33.7621 57.6692 33.7866 57.949 33.8691L61.2439 34.8211C62.432 35.1633 63.9121 34.5627 64.5275 33.4815L65.6505 31.5163C66.2659 30.4351 66.048 28.8439 65.1586 27.9757L62.6925 25.5708C62.4814 25.3674 62.3133 25.1229 62.1985 24.852C62.0838 24.5811 62.0247 24.2896 62.0249 23.995C62.0251 23.7004 62.0846 23.4089 62.1998 23.1382C62.3149 22.8675 62.4833 22.6232 62.6948 22.4201L65.1564 20.0152C66.0458 19.1493 66.2659 17.5581 65.6505 16.4769L64.5253 14.5117C63.9076 13.4305 62.4298 12.8299 61.2439 13.1721L57.949 14.1241C57.6691 14.2063 57.3756 14.2306 57.0861 14.1954C56.7966 14.1602 56.5172 14.0663 56.2646 13.9194C56.0121 13.7724 55.7915 13.5755 55.6163 13.3403C55.441 13.1052 55.3147 12.8367 55.2448 12.5511L54.4138 9.1964C54.1151 7.99053 52.8596 7 51.6243 7H49.3783C48.143 7 46.8875 7.99053 46.5888 9.19867L45.7578 12.5533C45.6879 12.839 45.5616 13.1076 45.3864 13.3428C45.2112 13.578 44.9907 13.7751 44.7381 13.9222C44.4856 14.0693 44.2062 14.1634 43.9167 14.1989C43.6273 14.2344 43.3337 14.2105 43.0536 14.1287L39.7587 13.1767C38.5706 12.8321 37.0905 13.4351 36.4751 14.514L35.3521 16.4792C34.7367 17.5604 34.9546 19.1516 35.8462 20.0197L38.3078 22.4201C38.5181 22.6242 38.6853 22.869 38.7996 23.1399C38.9138 23.4108 38.9727 23.7022 38.9727 23.9966C38.9727 24.291 38.9138 24.5824 38.7996 24.8533C38.6853 25.1242 38.5181 25.369 38.3078 25.5731L35.8417 27.978C34.9546 28.8461 34.7322 30.4373 35.3499 31.5185L36.4751 33.4837C37.0905 34.5649 38.5706 35.1656 39.7587 34.8233L43.0536 33.8713C43.3332 33.7885 43.6266 33.7637 43.916 33.7984C44.2054 33.8332 44.4849 33.9268 44.7374 34.0736C44.9899 34.2205 45.2104 34.4174 45.3854 34.6526C45.5604 34.8879 45.6863 35.1564 45.7555 35.4421ZM50.5013 19.4667C51.6927 19.4667 52.8352 19.9443 53.6776 20.7944C54.52 21.6446 54.9933 22.7977 54.9933 24C54.9933 25.2023 54.52 26.3554 53.6776 27.2055C52.8352 28.0557 51.6927 28.5333 50.5013 28.5333C49.31 28.5333 48.1674 28.0557 47.325 27.2055C46.4826 26.3554 46.0093 25.2023 46.0093 24C46.0093 22.7977 46.4826 21.6446 47.325 20.7944C48.1674 19.9443 49.31 19.4667 50.5013 19.4667Z" fill="url(#paint1_linear_57_1841)"/>
<defs>
<linearGradient id="paint0_linear_57_1841" x1="11" y1="66" x2="42.7519" y2="15.6461" gradientUnits="userSpaceOnUse">
<stop stop-color="#00FFFF"/>
<stop offset="1" stop-color="#7000FF"/>
</linearGradient>
<linearGradient id="paint1_linear_57_1841" x1="35" y1="41" x2="62.2519" y2="4.22268" gradientUnits="userSpaceOnUse">
<stop stop-color="#00FFFF"/>
<stop offset="1" stop-color="#7000FF"/>
</linearGradient>
</defs>
</svg>
