<svg width="70" height="70" viewBox="0 0 70 70" fill="none" xmlns="http://www.w3.org/2000/svg">
<path d="M35 64.1667C31.1698 64.1667 27.377 63.4122 23.8384 61.9465C20.2997 60.4807 17.0844 58.3323 14.376 55.6239C8.90622 50.1541 5.83331 42.7355 5.83331 35C5.83331 27.2645 8.90622 19.8459 14.376 14.376C19.8458 8.90624 27.2645 5.83333 35 5.83333C51.0416 5.83333 64.1666 17.5 64.1666 32.0833C64.1666 36.7246 62.3229 41.1758 59.041 44.4577C55.7591 47.7396 51.3079 49.5833 46.6666 49.5833H41.4166C40.5416 49.5833 39.9583 50.1667 39.9583 51.0417C39.9583 51.3333 40.25 51.625 40.25 51.9167C41.4166 53.375 42 55.125 42 56.875C42.2916 60.9583 39.0833 64.1667 35 64.1667ZM35 11.6667C28.8116 11.6667 22.8767 14.125 18.5008 18.5008C14.125 22.8767 11.6666 28.8116 11.6666 35C11.6666 41.1884 14.125 47.1233 18.5008 51.4992C22.8767 55.875 28.8116 58.3333 35 58.3333C35.875 58.3333 36.4583 57.75 36.4583 56.875C36.4583 56.2917 36.1666 56 36.1666 55.7083C35 54.25 34.4166 52.7917 34.4166 51.0417C34.4166 46.9583 37.625 43.75 41.7083 43.75H46.6666C49.7608 43.75 52.7283 42.5208 54.9162 40.3329C57.1041 38.145 58.3333 35.1775 58.3333 32.0833C58.3333 20.7083 47.8333 11.6667 35 11.6667ZM18.9583 29.1667C21.2916 29.1667 23.3333 31.2083 23.3333 33.5417C23.3333 35.875 21.2916 37.9167 18.9583 37.9167C16.625 37.9167 14.5833 35.875 14.5833 33.5417C14.5833 31.2083 16.625 29.1667 18.9583 29.1667ZM27.7083 17.5C30.0416 17.5 32.0833 19.5417 32.0833 21.875C32.0833 24.2083 30.0416 26.25 27.7083 26.25C25.375 26.25 23.3333 24.2083 23.3333 21.875C23.3333 19.5417 25.375 17.5 27.7083 17.5ZM42.2916 17.5C44.625 17.5 46.6666 19.5417 46.6666 21.875C46.6666 24.2083 44.625 26.25 42.2916 26.25C39.9583 26.25 37.9166 24.2083 37.9166 21.875C37.9166 19.5417 39.9583 17.5 42.2916 17.5ZM51.0416 29.1667C53.375 29.1667 55.4166 31.2083 55.4166 33.5417C55.4166 35.875 53.375 37.9167 51.0416 37.9167C48.7083 37.9167 46.6666 35.875 46.6666 33.5417C46.6666 31.2083 48.7083 29.1667 51.0416 29.1667Z" fill="url(#paint0_linear_57_1850)"/>
<defs>
<linearGradient id="paint0_linear_57_1850" x1="5.83331" y1="64.1667" x2="51.1746" y2="-2.94433" gradientUnits="userSpaceOnUse">
<stop stop-color="#00FFFF"/>
<stop offset="1" stop-color="#7000FF"/>
</linearGradient>
</defs>
</svg>
