<svg width="70" height="70" viewBox="0 0 70 70" fill="none" xmlns="http://www.w3.org/2000/svg">
<path d="M43.135 27.5C44.6268 27.5 46.0576 28.0926 47.1125 29.1475C48.1674 30.2024 48.76 31.6332 48.76 33.125V48.7475C48.76 52.3949 47.3111 55.8929 44.732 58.472C42.1529 61.0511 38.6549 62.5 35.0075 62.5C31.3601 62.5 27.8621 61.0511 25.283 58.472C22.7039 55.8929 21.255 52.3949 21.255 48.7475V33.125C21.255 31.6332 21.8476 30.2024 22.9025 29.1475C23.9574 28.0926 25.3882 27.5 26.88 27.5H43.135ZM43.135 31.25H26.88C26.3827 31.25 25.9058 31.4475 25.5542 31.7992C25.2025 32.1508 25.005 32.6277 25.005 33.125V48.7475C25.005 51.4003 26.0588 53.9445 27.9347 55.8203C29.8105 57.6962 32.3547 58.75 35.0075 58.75C37.6603 58.75 40.2045 57.6962 42.0803 55.8203C43.9562 53.9445 45.01 51.4003 45.01 48.7475V33.125C45.01 32.6277 44.8125 32.1508 44.4608 31.7992C44.1092 31.4475 43.6323 31.25 43.135 31.25ZM10.625 27.5H21.015C20.0113 28.545 19.306 29.8399 18.9725 31.25H10.625C10.1277 31.25 9.65081 31.4475 9.29918 31.7992C8.94755 32.1508 8.75 32.6277 8.75 33.125V46.2475C8.74967 47.5019 9.06385 48.7363 9.66382 49.8379C10.2638 50.9395 11.1304 51.8731 12.1843 52.5533C13.2383 53.2335 14.446 53.6385 15.6969 53.7314C16.9479 53.8243 18.2021 53.6021 19.345 53.085C19.6775 54.31 20.155 55.475 20.755 56.565C19.0422 57.3128 17.17 57.6223 15.3077 57.4653C13.4453 57.3084 11.6514 56.6901 10.0878 55.6661C8.52428 54.6422 7.24041 53.245 6.35213 51.6006C5.46386 49.9562 4.99916 48.1165 5 46.2475V33.125C5 31.6332 5.59263 30.2024 6.64753 29.1475C7.70242 28.0926 9.13316 27.5 10.625 27.5ZM59.375 27.5C60.8668 27.5 62.2976 28.0926 63.3525 29.1475C64.4074 30.2024 65 31.6332 65 33.125V46.25C65.0008 48.1179 64.5364 49.9566 63.6488 51.6002C62.7612 53.2437 61.4784 54.6404 59.9161 55.6642C58.3537 56.688 56.561 57.3067 54.6998 57.4644C52.8385 57.6221 50.9673 57.3138 49.255 56.5675L49.395 56.3125C49.93 55.2975 50.3625 54.22 50.6725 53.09C51.8147 53.604 53.0675 53.8237 54.3165 53.7291C55.5654 53.6345 56.7708 53.2286 57.8226 52.5484C58.8744 51.8683 59.7391 50.9355 60.3378 49.8353C60.9365 48.7352 61.2501 47.5025 61.25 46.25V33.125C61.25 32.6282 61.0528 32.1516 60.7017 31.8001C60.3506 31.4485 59.8743 31.2507 59.3775 31.25H51.045C50.7109 29.8396 50.0047 28.5447 49 27.5H59.375ZM35 7.5C36.1491 7.5 37.2869 7.72633 38.3485 8.16605C39.4101 8.60578 40.3747 9.2503 41.1872 10.0628C41.9997 10.8753 42.6442 11.8399 43.0839 12.9015C43.5237 13.9631 43.75 15.1009 43.75 16.25C43.75 17.3991 43.5237 18.5369 43.0839 19.5985C42.6442 20.6601 41.9997 21.6247 41.1872 22.4372C40.3747 23.2497 39.4101 23.8942 38.3485 24.3339C37.2869 24.7737 36.1491 25 35 25C32.6794 25 30.4538 24.0781 28.8128 22.4372C27.1719 20.7962 26.25 18.5706 26.25 16.25C26.25 13.9294 27.1719 11.7038 28.8128 10.0628C30.4538 8.42187 32.6794 7.5 35 7.5ZM55.0075 10C55.9924 10 56.9677 10.194 57.8776 10.5709C58.7876 10.9478 59.6144 11.5003 60.3108 12.1967C61.0072 12.8931 61.5597 13.7199 61.9366 14.6299C62.3135 15.5398 62.5075 16.5151 62.5075 17.5C62.5075 18.4849 62.3135 19.4602 61.9366 20.3701C61.5597 21.2801 61.0072 22.1069 60.3108 22.8033C59.6144 23.4997 58.7876 24.0522 57.8776 24.4291C56.9677 24.806 55.9924 25 55.0075 25C53.0184 25 51.1107 24.2098 49.7042 22.8033C48.2977 21.3968 47.5075 19.4891 47.5075 17.5C47.5075 15.5109 48.2977 13.6032 49.7042 12.1967C51.1107 10.7902 53.0184 10 55.0075 10ZM14.9925 10C15.9774 10 16.9527 10.194 17.8626 10.5709C18.7726 10.9478 19.5994 11.5003 20.2958 12.1967C20.9922 12.8931 21.5447 13.7199 21.9216 14.6299C22.2985 15.5398 22.4925 16.5151 22.4925 17.5C22.4925 18.4849 22.2985 19.4602 21.9216 20.3701C21.5447 21.2801 20.9922 22.1069 20.2958 22.8033C19.5994 23.4997 18.7726 24.0522 17.8626 24.4291C16.9527 24.806 15.9774 25 14.9925 25C13.0034 25 11.0957 24.2098 9.6892 22.8033C8.28268 21.3968 7.4925 19.4891 7.4925 17.5C7.4925 15.5109 8.28268 13.6032 9.6892 12.1967C11.0957 10.7902 13.0034 10 14.9925 10ZM35 11.25C33.6739 11.25 32.4021 11.7768 31.4645 12.7145C30.5268 13.6521 30 14.9239 30 16.25C30 17.5761 30.5268 18.8479 31.4645 19.7855C32.4021 20.7232 33.6739 21.25 35 21.25C36.3261 21.25 37.5979 20.7232 38.5355 19.7855C39.4732 18.8479 40 17.5761 40 16.25C40 14.9239 39.4732 13.6521 38.5355 12.7145C37.5979 11.7768 36.3261 11.25 35 11.25ZM55.0075 13.75C54.515 13.75 54.0274 13.847 53.5724 14.0355C53.1175 14.2239 52.7041 14.5001 52.3558 14.8483C52.0076 15.1966 51.7314 15.61 51.5429 16.0649C51.3545 16.5199 51.2575 17.0075 51.2575 17.5C51.2575 17.9925 51.3545 18.4801 51.5429 18.9351C51.7314 19.39 52.0076 19.8034 52.3558 20.1517C52.7041 20.4999 53.1175 20.7761 53.5724 20.9645C54.0274 21.153 54.515 21.25 55.0075 21.25C56.0021 21.25 56.9559 20.8549 57.6591 20.1517C58.3624 19.4484 58.7575 18.4946 58.7575 17.5C58.7575 16.5054 58.3624 15.5516 57.6591 14.8483C56.9559 14.1451 56.0021 13.75 55.0075 13.75ZM14.9925 13.75C14.5 13.75 14.0124 13.847 13.5574 14.0355C13.1025 14.2239 12.6891 14.5001 12.3409 14.8483C11.9926 15.1966 11.7164 15.61 11.528 16.0649C11.3395 16.5199 11.2425 17.0075 11.2425 17.5C11.2425 17.9925 11.3395 18.4801 11.528 18.9351C11.7164 19.39 11.9926 19.8034 12.3409 20.1517C12.6891 20.4999 13.1025 20.7761 13.5574 20.9645C14.0124 21.153 14.5 21.25 14.9925 21.25C15.9871 21.25 16.9409 20.8549 17.6442 20.1517C18.3474 19.4484 18.7425 18.4946 18.7425 17.5C18.7425 16.5054 18.3474 15.5516 17.6442 14.8483C16.9409 14.1451 15.9871 13.75 14.9925 13.75Z" fill="url(#paint0_linear_179_245)"/>
<defs>
<linearGradient id="paint0_linear_179_245" x1="5" y1="62.5" x2="46.2528" y2="-4.11042" gradientUnits="userSpaceOnUse">
<stop stop-color="#00FFFF"/>
<stop offset="1" stop-color="#7000FF"/>
</linearGradient>
</defs>
</svg>
