<svg width="360" height="414" viewBox="0 0 360 414" fill="none" xmlns="http://www.w3.org/2000/svg">
<path opacity="0.75" d="M-37.53 -3.36489C83.5602 -29.2993 322.594 -20.984 439.557 6.99326C556.52 34.9705 657.127 99.5611 664.248 164.499C671.368 229.436 600.113 362.196 482.281 396.619C364.449 431.042 85.4681 410.041 -42.7427 371.038C-170.954 332.034 -287.853 225 -286.984 162.6" fill="url(#paint0_linear_57_1862)"/>
<path opacity="0.5" d="M-149.128 13.1534C-12.3037 -11.7546 257.789 -3.76831 389.949 23.1017C522.11 49.9716 635.789 112.006 643.835 174.373C651.881 236.741 571.367 364.246 438.225 397.307C305.083 430.367 -10.1479 410.197 -155.018 372.738C-299.888 335.278 -431.976 232.481 -430.995 172.55" fill="url(#paint1_radial_57_1862)"/>
<path d="M3.57902 -1.61624C124.868 -26.6611 364.295 -18.631 481.451 8.38666C598.606 35.4043 699.379 97.7793 706.511 160.489C713.643 223.2 642.271 351.405 524.245 384.648C406.22 417.89 126.779 397.609 -1.64228 359.944C-130.064 322.279 -247.156 218.916 -246.285 158.656" fill="url(#paint2_radial_57_1862)"/>
<defs>
<linearGradient id="paint0_linear_57_1862" x1="188.873" y1="414" x2="188.873" y2="-18.9999" gradientUnits="userSpaceOnUse">
<stop stop-color="#7000FF"/>
<stop offset="1" stop-color="#00FFFF"/>
</linearGradient>
<radialGradient id="paint1_radial_57_1862" cx="0" cy="0" r="1" gradientUnits="userSpaceOnUse" gradientTransform="translate(-136.808 -71.7637) rotate(16.527) scale(908.995 695.756)">
<stop stop-color="#00FFFF"/>
<stop offset="0.940098" stop-color="#7000FF"/>
</radialGradient>
<radialGradient id="paint2_radial_57_1862" cx="0" cy="0" r="1" gradientUnits="userSpaceOnUse" gradientTransform="translate(14.5001 -87) rotate(10.301) scale(668.271 567.036)">
<stop stop-color="#00FFFF"/>
<stop offset="0.940098" stop-color="#7000FF"/>
</radialGradient>
</defs>
</svg>
