<svg width="70" height="70" viewBox="0 0 70 70" fill="none" xmlns="http://www.w3.org/2000/svg">
<path d="M52.7857 45V53.0769H14.2143V27.2308H30.2857V24H14.2143C13.3618 24 12.5442 24.3404 11.9414 24.9463C11.3386 25.5522 11 26.3739 11 27.2308V53.0769C11 53.9338 11.3386 54.7555 11.9414 55.3614C12.5442 55.9673 13.3618 56.3077 14.2143 56.3077H27.0714V62.7692H20.6429V66H46.3571V62.7692H39.9286V56.3077H52.7857C53.6382 56.3077 54.4558 55.9673 55.0586 55.3614C55.6614 54.7555 56 53.9338 56 53.0769V45H52.7857ZM36.7143 62.7692H30.2857V56.3077H36.7143V62.7692Z" fill="url(#paint0_linear_57_1758)"/>
<path fill-rule="evenodd" clip-rule="evenodd" d="M35 9.38462C35 8.99699 35.158 8.62524 35.4393 8.35115C35.7206 8.07706 36.1022 7.92308 36.5 7.92308H54.5C54.8978 7.92308 55.2794 8.07706 55.5607 8.35115C55.842 8.62524 56 8.99699 56 9.38462V38.6154C56 39.003 55.842 39.3748 55.5607 39.6488C55.2794 39.9229 54.8978 40.0769 54.5 40.0769H36.5C36.1022 40.0769 35.7206 39.9229 35.4393 39.6488C35.158 39.3748 35 39.003 35 38.6154V9.38462ZM36.5 5C35.3065 5 34.1619 5.46195 33.318 6.28422C32.4741 7.1065 32 8.22174 32 9.38462V38.6154C32 39.7783 32.4741 40.8935 33.318 41.7158C34.1619 42.5381 35.3065 43 36.5 43H54.5C55.6935 43 56.8381 42.5381 57.682 41.7158C58.5259 40.8935 59 39.7783 59 38.6154V9.38462C59 8.22174 58.5259 7.1065 57.682 6.28422C56.8381 5.46195 55.6935 5 54.5 5H36.5ZM41 36.1308C40.7215 36.1308 40.4545 36.2386 40.2575 36.4304C40.0606 36.6223 39.95 36.8825 39.95 37.1538C39.95 37.4252 40.0606 37.6854 40.2575 37.8773C40.4545 38.0691 40.7215 38.1769 41 38.1769H50C50.2785 38.1769 50.5455 38.0691 50.7425 37.8773C50.9394 37.6854 51.05 37.4252 51.05 37.1538C51.05 36.8825 50.9394 36.6223 50.7425 36.4304C50.5455 36.2386 50.2785 36.1308 50 36.1308H41Z" fill="url(#paint1_linear_57_1758)"/>
<defs>
<linearGradient id="paint0_linear_57_1758" x1="11" y1="66" x2="42.7519" y2="15.6461" gradientUnits="userSpaceOnUse">
<stop stop-color="#00FFFF"/>
<stop offset="1" stop-color="#7000FF"/>
</linearGradient>
<linearGradient id="paint1_linear_57_1758" x1="32" y1="43" x2="63.7963" y2="9.56067" gradientUnits="userSpaceOnUse">
<stop stop-color="#00FFFF"/>
<stop offset="1" stop-color="#7000FF"/>
</linearGradient>
</defs>
</svg>
