<svg width="70" height="70" viewBox="0 0 70 70" fill="none" xmlns="http://www.w3.org/2000/svg">
<path d="M30.2272 8.75C25.9794 8.75 21.827 10.0096 18.2951 12.3696C14.7632 14.7295 12.0104 18.0838 10.3849 22.0082C8.75931 25.9326 8.33399 30.251 9.16269 34.4171C9.99139 38.5833 12.0369 42.4102 15.0405 45.4138C18.0442 48.4174 21.871 50.4629 26.0372 51.2916C30.2033 52.1203 34.5217 51.695 38.4461 50.0694C42.3705 48.4439 45.7248 45.6911 48.0848 42.1592C50.4447 38.6273 51.7043 34.4749 51.7043 30.2271C51.7039 24.5312 49.4411 19.0686 45.4134 15.0409C41.3857 11.0132 35.9231 8.75036 30.2272 8.75Z" stroke="url(#paint0_linear_57_1768)" stroke-width="3" stroke-miterlimit="10"/>
<path d="M46.2506 46.2506L61.25 61.25" stroke="url(#paint1_linear_57_1768)" stroke-width="3" stroke-miterlimit="10" stroke-linecap="round"/>
<path d="M26.61 14.5714C26.61 14.5714 27.6138 16.7557 28.8488 17.51C30.0838 18.2596 32.5 18.1543 32.5 18.1543C32.5 18.1543 30.2992 19.149 29.5392 20.3747C28.7823 21.6004 28.89 24 28.89 24C28.89 24 27.8862 21.8157 26.6512 21.0614C25.4177 20.3134 23 20.4171 23 20.4171C23 20.4171 25.2008 19.4224 25.9608 18.1967C26.7177 16.971 26.61 14.5714 26.61 14.5714ZM39.5933 13C39.5933 13 38.9252 14.4567 38.1018 14.958C37.2785 15.4593 35.6667 15.3886 35.6667 15.3886C35.6667 15.3886 37.1344 16.0517 37.6395 16.8689C38.1446 17.686 38.0733 19.2857 38.0733 19.2857C38.0733 19.2857 38.7415 17.829 39.5648 17.3277C40.3882 16.8264 42 16.8971 42 16.8971C42 16.8971 40.5322 16.234 40.0272 15.4169C39.5221 14.5997 39.5933 13 39.5933 13Z" stroke="url(#paint2_linear_57_1768)" stroke-linejoin="round"/>
<defs>
<linearGradient id="paint0_linear_57_1768" x1="8.75" y1="51.7043" x2="42.1375" y2="2.28649" gradientUnits="userSpaceOnUse">
<stop stop-color="#00FFFF"/>
<stop offset="1" stop-color="#7000FF"/>
</linearGradient>
<linearGradient id="paint1_linear_57_1768" x1="46.2506" y1="61.25" x2="57.9093" y2="43.9936" gradientUnits="userSpaceOnUse">
<stop stop-color="#00FFFF"/>
<stop offset="1" stop-color="#7000FF"/>
</linearGradient>
<linearGradient id="paint2_linear_57_1768" x1="23" y1="24" x2="29.2529" y2="8.01401" gradientUnits="userSpaceOnUse">
<stop stop-color="#00FFFF"/>
<stop offset="1" stop-color="#7000FF"/>
</linearGradient>
</defs>
</svg>
