<svg width="70" height="70" viewBox="0 0 70 70" fill="none" xmlns="http://www.w3.org/2000/svg">
<path fill-rule="evenodd" clip-rule="evenodd" d="M0 35C0 35 13.125 8.75 35 8.75C56.875 8.75 70 35 70 35C70 35 56.875 61.25 35 61.25C13.125 61.25 0 35 0 35ZM7.91875 35.5688C7.80102 35.3798 7.68435 35.1902 7.56875 35L7.9275 34.4312C9.35375 32.2 11.4538 29.2381 14.14 26.3112C19.6613 20.2781 26.775 15.3125 35 15.3125C43.2163 15.3125 50.3388 20.2781 55.8688 26.3112C58.3152 29.0025 60.5118 31.9107 62.4313 35C60.5029 38.0854 58.3038 40.9931 55.86 43.6888C50.3387 49.7219 43.225 54.6875 35 54.6875C26.7837 54.6875 19.6613 49.7219 14.1313 43.6888C11.833 41.1639 9.75459 38.4474 7.91875 35.5688ZM48.125 35C48.1242 37.7629 47.2515 40.4551 45.6312 42.6931C44.0109 44.931 41.7257 46.6006 39.1011 47.4639C36.4765 48.3272 33.6464 48.3403 31.014 47.5012C28.3816 46.6621 26.0811 45.0137 24.4402 42.7908C22.7994 40.5678 21.9019 37.8838 21.8756 35.121C21.8493 32.3582 22.6956 29.6575 24.2938 27.4038C25.8921 25.15 28.1608 23.4581 30.7768 22.5691C33.3928 21.6801 36.2226 21.6393 38.8631 22.4525C37.8962 22.89 37.0498 23.5556 36.3966 24.392C35.7433 25.2285 35.3027 26.2109 35.1125 27.255C34.9222 28.2991 34.988 29.3738 35.3043 30.3869C35.6206 31.4 36.1778 32.3213 36.9283 33.0717C37.6787 33.8222 38.6 34.3794 39.6131 34.6957C40.6262 35.012 41.7009 35.0778 42.745 34.8875C43.7891 34.6973 44.7715 34.2567 45.608 33.6034C46.4444 32.9502 47.11 32.1038 47.5475 31.1369C47.9316 32.3886 48.1263 33.6907 48.125 35Z" fill="url(#paint0_linear_179_247)"/>
<defs>
<linearGradient id="paint0_linear_179_247" x1="0" y1="61.25" x2="35.4686" y2="-8.74749" gradientUnits="userSpaceOnUse">
<stop stop-color="#00FFFF"/>
<stop offset="1" stop-color="#7000FF"/>
</linearGradient>
</defs>
</svg>
