<svg width="51" height="51" viewBox="0 0 51 51" fill="none" xmlns="http://www.w3.org/2000/svg">
<path d="M7.0389 43.4072L20.4475 29.9986M37.3325 24.0359L33.3188 36.0771C33.2547 36.2701 33.145 36.4448 32.9991 36.5864C32.8531 36.728 32.6751 36.8323 32.4802 36.8904L7.87536 44.2036C7.65369 44.2694 7.41821 44.2732 7.19454 44.2145C6.97088 44.1558 6.7676 44.0369 6.60682 43.8707C6.44605 43.7045 6.33395 43.4973 6.28271 43.2718C6.23147 43.0464 6.24306 42.8111 6.31622 42.5918L14.3057 18.6274C14.363 18.4554 14.4566 18.2976 14.5802 18.1649C14.7038 18.0323 14.8545 17.9277 15.0221 17.8584L26.3722 13.1852C26.6029 13.0899 26.8567 13.0651 27.1016 13.1138C27.3464 13.1626 27.5714 13.2827 27.748 13.4591L37.027 22.7402C37.1934 22.9064 37.3101 23.1157 37.3641 23.3446C37.4181 23.5735 37.4071 23.8129 37.3325 24.0359Z" stroke="url(#paint0_linear_7_279)" stroke-width="3" stroke-linecap="round" stroke-linejoin="round"/>
<path d="M37.5811 23.2943L43.5396 17.3337C44.3295 16.5435 44.7733 15.4719 44.7733 14.3545C44.7733 13.2371 44.3295 12.1655 43.5396 11.3753L39.0729 6.90438C38.6815 6.5129 38.2169 6.20236 37.7056 5.99048C37.1942 5.77861 36.6461 5.66956 36.0926 5.66956C35.5391 5.66956 34.991 5.77861 34.4796 5.99048C33.9683 6.20236 33.5036 6.5129 33.1123 6.90438L27.1539 12.8649M24.9163 25.5276C24.6228 25.2342 24.2743 25.0015 23.8908 24.8427C23.5073 24.684 23.0962 24.6023 22.6812 24.6024C22.2661 24.6025 21.8551 24.6843 21.4717 24.8433C21.0883 25.0022 20.7399 25.2351 20.4465 25.5287C20.153 25.8222 19.9203 26.1707 19.7615 26.5542C19.6028 26.9377 19.5211 27.3488 19.5212 27.7638C19.5213 28.1789 19.6032 28.5899 19.7621 28.9733C19.921 29.3567 20.1539 29.7051 20.4475 29.9985C21.0404 30.5911 21.8444 30.924 22.6827 30.9238C23.5209 30.9236 24.3248 30.5904 24.9174 29.9975C25.51 29.4046 25.8428 28.6006 25.8426 27.7623C25.8424 26.9241 25.5092 26.1202 24.9163 25.5276Z" stroke="url(#paint1_linear_7_279)" stroke-width="3" stroke-linecap="round" stroke-linejoin="round"/>
<defs>
<linearGradient id="paint0_linear_7_279" x1="6.25128" y1="44.2559" x2="30.482" y2="8.41405" gradientUnits="userSpaceOnUse">
<stop stop-color="#00FFFF"/>
<stop offset="1" stop-color="#7000FF"/>
</linearGradient>
<linearGradient id="paint1_linear_7_279" x1="19.5212" y1="30.9238" x2="39.1514" y2="1.87097" gradientUnits="userSpaceOnUse">
<stop stop-color="#00FFFF"/>
<stop offset="1" stop-color="#7000FF"/>
</linearGradient>
</defs>
</svg>
