<svg width="54" height="54" viewBox="0 0 54 54" fill="none" xmlns="http://www.w3.org/2000/svg">
<path d="M32.4513 6.9434C33.0152 7.102 33.493 7.47803 33.7797 7.98883C34.0664 8.49963 34.1384 9.10337 33.9801 9.6673L24.1935 44.5456C24.1151 44.825 23.9826 45.0862 23.8033 45.3144C23.624 45.5425 23.4015 45.7331 23.1486 45.8752C22.8957 46.0174 22.6172 46.1084 22.3291 46.1429C22.041 46.1774 21.7489 46.1549 21.4696 46.0766C21.1902 45.9982 20.929 45.8657 20.7008 45.6864C20.4727 45.5071 20.2821 45.2846 20.14 45.0317C19.9978 44.7788 19.9068 44.5003 19.8723 44.2122C19.8378 43.9241 19.8603 43.6321 19.9386 43.3527L29.7252 8.47435C29.8035 8.19471 29.9362 7.93325 30.1156 7.70492C30.295 7.47659 30.5177 7.28587 30.7709 7.14368C31.0241 7.00149 31.3028 6.91061 31.5912 6.87624C31.8795 6.84188 32.1718 6.8647 32.4513 6.9434ZM16.3708 15.5746C16.785 15.9889 17.0176 16.5507 17.0176 17.1365C17.0176 17.7223 16.785 18.2841 16.3708 18.6984L8.56141 26.51L16.3708 34.3194C16.5761 34.5245 16.7389 34.768 16.8501 35.0361C16.9612 35.3041 17.0184 35.5914 17.0185 35.8816C17.0187 36.1718 16.9616 36.4591 16.8506 36.7272C16.7397 36.9954 16.577 37.239 16.3719 37.4443C16.1668 37.6495 15.9233 37.8124 15.6552 37.9235C15.3872 38.0346 15.0999 38.0919 14.8097 38.092C14.5195 38.0921 14.2322 38.035 13.9641 37.9241C13.696 37.8131 13.4523 37.6505 13.2471 37.4454L3.87356 28.0719C3.4594 27.6576 3.22675 27.0958 3.22675 26.51C3.22675 25.9242 3.4594 25.3624 3.87356 24.9481L13.2471 15.5746C13.6613 15.1605 14.2231 14.9278 14.8089 14.9278C15.3947 14.9278 15.9565 15.1605 16.3708 15.5746ZM37.5479 18.6984C37.3369 18.4946 37.1686 18.2508 37.0528 17.9813C36.937 17.7118 36.8761 17.4219 36.8735 17.1285C36.871 16.8352 36.9269 16.5443 37.038 16.2728C37.149 16.0013 37.3131 15.7547 37.5205 15.5472C37.7279 15.3398 37.9746 15.1758 38.2461 15.0647C38.5176 14.9536 38.8085 14.8977 39.1018 14.9003C39.3951 14.9028 39.685 14.9638 39.9546 15.0795C40.2241 15.1953 40.4679 15.3636 40.6716 15.5746L50.0451 24.9481C50.4593 25.3624 50.692 25.9242 50.692 26.51C50.692 27.0958 50.4593 27.6576 50.0451 28.0719L40.6716 37.4432C40.255 37.8456 39.697 38.0682 39.1177 38.0632C38.5385 38.0582 37.9844 37.8258 37.5748 37.4162C37.1652 37.0066 36.9329 36.4526 36.9278 35.8733C36.9228 35.2941 37.1455 34.736 37.5479 34.3194L45.3573 26.51L37.5479 18.6984Z" fill="url(#paint0_linear_131_537)"/>
<defs>
<linearGradient id="paint0_linear_131_537" x1="3.22675" y1="46.1586" x2="31.2817" y2="-3.99664" gradientUnits="userSpaceOnUse">
<stop stop-color="#00FFFF"/>
<stop offset="1" stop-color="#7000FF"/>
</linearGradient>
</defs>
</svg>
