<svg width="1451" height="769" viewBox="0 0 1451 769" fill="none" xmlns="http://www.w3.org/2000/svg">
<mask id="mask0_179_253" style="mask-type:alpha" maskUnits="userSpaceOnUse" x="0" y="0" width="1451" height="769">
<rect width="1451" height="769" fill="#D9D9D9"/>
</mask>
<g mask="url(#mask0_179_253)">
<path opacity="0.5" d="M16.5919 -43.1983C335.309 -93.6844 964.461 -77.4971 1272.31 -23.0342C1580.17 31.4287 1844.97 157.166 1863.71 283.579C1882.46 409.992 1694.91 668.432 1384.77 735.443C1074.63 802.454 340.331 761.571 2.8717 685.645C-334.588 609.718 -642.274 401.356 -639.987 279.883" fill="url(#paint0_angular_179_253)" fill-opacity="0.9"/>
<path opacity="0.1" d="M-276.27 -7.51119C83.2886 -55.7798 793.063 -40.3034 1140.37 11.7672C1487.67 63.8378 1786.41 184.052 1807.55 304.913C1828.69 425.773 1617.11 672.862 1267.23 736.929C917.346 800.997 88.9541 761.91 -291.748 689.318C-672.451 616.727 -1019.57 417.517 -1016.99 301.379" fill="url(#paint1_angular_179_253)" fill-opacity="0.9"/>
<path d="M72.9898 -108.8C419.306 -162.212 1102.94 -145.086 1437.45 -87.4668C1771.96 -29.8474 2059.7 103.177 2080.06 236.917C2100.43 370.656 1896.64 644.075 1559.64 714.97C1222.64 785.865 424.763 742.613 58.0815 662.285C-308.6 581.958 -642.93 361.52 -640.445 233.006" fill="url(#paint2_angular_179_253)" fill-opacity="0.9"/>
</g>
<defs>
<radialGradient id="paint0_angular_179_253" cx="0" cy="0" r="1" gradientUnits="userSpaceOnUse" gradientTransform="translate(165.427 464.634) rotate(-146.245) scale(968.734 3186.01)">
<stop stop-color="#00FFFF"/>
<stop offset="0.458333" stop-color="#7000FF"/>
<stop offset="0.609375" stop-color="#40005E"/>
<stop offset="0.973958" stop-color="#5C01BC"/>
</radialGradient>
<radialGradient id="paint1_angular_179_253" cx="0" cy="0" r="1" gradientUnits="userSpaceOnUse" gradientTransform="translate(-108.362 478.015) rotate(-150.474) scale(1044.25 3187.89)">
<stop stop-color="#00FFFF"/>
<stop offset="0.458333" stop-color="#7000FF"/>
<stop offset="0.609375" stop-color="#40005E"/>
<stop offset="0.973958" stop-color="#5C01BC"/>
</radialGradient>
<radialGradient id="paint2_angular_179_253" cx="0" cy="0" r="1" gradientUnits="userSpaceOnUse" gradientTransform="translate(234.713 428.465) rotate(-146.948) scale(1044.13 3398.06)">
<stop stop-color="#00FFFF"/>
<stop offset="0.458333" stop-color="#7000FF"/>
<stop offset="0.609375" stop-color="#40005E"/>
<stop offset="0.973958" stop-color="#5C01BC"/>
</radialGradient>
</defs>
</svg>
