<svg width="360" height="310" viewBox="0 0 360 310" fill="none" xmlns="http://www.w3.org/2000/svg">
<mask id="mask0_179_263" style="mask-type:alpha" maskUnits="userSpaceOnUse" x="0" y="0" width="360" height="310">
<rect width="360" height="310" fill="#D9D9D9"/>
</mask>
<g mask="url(#mask0_179_263)">
<path opacity="0.75" d="M-37.53 -107.365C83.5602 -133.299 322.594 -124.984 439.557 -97.0067C556.52 -69.0295 657.127 -4.4389 664.248 60.4987C671.368 125.436 600.113 258.196 482.281 292.619C364.449 327.042 85.4681 306.041 -42.7427 267.038C-170.954 228.034 -287.853 121 -286.984 58.5999" fill="url(#paint0_linear_179_263)"/>
<path opacity="0.5" d="M-149.128 -90.8466C-12.3037 -115.755 257.789 -107.768 389.949 -80.8983C522.11 -54.0284 635.789 8.00586 643.835 70.3734C651.881 132.741 571.367 260.246 438.225 293.307C305.083 326.367 -10.1479 306.197 -155.018 268.738C-299.888 231.278 -431.976 128.481 -430.995 68.5497" fill="url(#paint1_radial_179_263)"/>
<path d="M3.57902 -105.616C124.868 -130.661 364.295 -122.631 481.451 -95.6133C598.606 -68.5957 699.379 -6.22067 706.511 56.4895C713.643 119.2 642.271 247.405 524.245 280.648C406.22 313.89 126.779 293.609 -1.64228 255.944C-130.064 218.279 -247.156 114.916 -246.285 54.6558" fill="url(#paint2_radial_179_263)"/>
</g>
<defs>
<linearGradient id="paint0_linear_179_263" x1="188.873" y1="310" x2="188.873" y2="-123" gradientUnits="userSpaceOnUse">
<stop stop-color="#7000FF"/>
<stop offset="1" stop-color="#00FFFF"/>
</linearGradient>
<radialGradient id="paint1_radial_179_263" cx="0" cy="0" r="1" gradientUnits="userSpaceOnUse" gradientTransform="translate(-136.808 -175.764) rotate(16.527) scale(908.995 695.756)">
<stop stop-color="#00FFFF"/>
<stop offset="0.940098" stop-color="#7000FF"/>
</radialGradient>
<radialGradient id="paint2_radial_179_263" cx="0" cy="0" r="1" gradientUnits="userSpaceOnUse" gradientTransform="translate(14.5001 -191) rotate(10.301) scale(668.271 567.036)">
<stop stop-color="#00FFFF"/>
<stop offset="0.940098" stop-color="#7000FF"/>
</radialGradient>
</defs>
</svg>
